<?xml version="1.0" standalone="no"?>
<!DOCTYPE svg PUBLIC "-//W3C//DTD SVG 20010904//EN"
 "http://www.w3.org/TR/2001/REC-SVG-20010904/DTD/svg10.dtd">
<svg version="1.0" xmlns="http://www.w3.org/2000/svg"
 width="1080.000000pt" height="1080.000000pt" viewBox="0 0 1080.000000 1080.000000"
 preserveAspectRatio="xMidYMid meet">

<g transform="translate(0.000000,1080.000000) scale(0.100000,-0.100000)"
fill="#000000" stroke="none">
<path d="M5270 8292 c-82 -27 -98 -37 -310 -192 -107 -79 -301 -220 -430 -314
-262 -190 -317 -241 -361 -333 -60 -125 -59 -103 -59 -1211 0 -1129 -1 -1104
68 -1236 50 -96 141 -185 233 -229 134 -64 96 -62 994 -62 768 0 824 1 880 18
151 47 275 148 339 278 68 138 66 102 66 1235 0 979 -1 1024 -19 1097 -47 181
-69 203 -516 529 -71 52 -215 157 -320 233 -241 176 -288 198 -415 202 -71 2
-109 -2 -150 -15z m231 -228 c23 -11 381 -270 785 -567 99 -72 131 -108 157
-175 16 -39 17 -132 17 -1082 0 -1020 0 -1040 -20 -1094 -27 -72 -85 -135
-156 -171 l-59 -30 -825 0 -825 0 -59 30 c-71 36 -129 99 -156 171 -20 54 -20
73 -20 1097 0 1014 1 1043 20 1085 11 24 29 56 40 72 30 42 883 660 933 676
48 16 126 10 168 -12z"/>
<path d="M5343 7760 c-40 -24 -53 -48 -53 -100 0 -34 6 -48 34 -76 29 -29 41
-34 81 -34 40 0 52 5 81 34 28 28 34 41 34 78 0 50 -18 82 -60 103 -39 20 -79
19 -117 -5z"/>
<path d="M4843 6936 c-92 -30 -167 -98 -208 -189 -24 -52 -27 -68 -23 -145 4
-105 28 -161 99 -232 64 -64 133 -90 237 -90 97 0 176 34 240 104 68 74 87
124 87 231 -1 78 -4 97 -29 147 -33 67 -99 131 -164 161 -59 26 -180 33 -239
13z m158 -229 c21 -14 39 -38 48 -63 12 -35 12 -44 -3 -75 -29 -62 -96 -85
-156 -54 -80 41 -77 159 4 199 43 21 68 20 107 -7z"/>
<path d="M5795 6700 c-34 -14 -923 -913 -935 -944 -14 -39 2 -88 41 -121 34
-28 76 -32 117 -11 15 8 230 218 478 468 489 491 482 482 448 555 -26 53 -92
77 -149 53z"/>
<path d="M5784 6031 c-98 -25 -184 -94 -232 -186 -23 -43 -26 -62 -27 -145 0
-90 2 -99 35 -159 72 -133 228 -205 370 -171 108 26 190 94 237 197 22 47 25
65 21 141 -4 98 -23 150 -83 220 -68 79 -222 129 -321 103z m148 -250 c29 -26
33 -35 33 -81 0 -46 -4 -55 -33 -81 -64 -57 -159 -31 -183 51 -10 32 -9 44 7
76 34 70 118 87 176 35z"/>
<path d="M5440 3839 c-25 -4 -98 -8 -162 -8 -98 -1 -118 -4 -118 -16 0 -8 9
-15 21 -15 32 0 57 -18 76 -53 17 -29 18 -76 18 -592 0 -632 3 -604 -75 -625
-22 -6 -40 -16 -40 -23 0 -9 57 -12 230 -12 174 0 230 3 230 12 0 7 -15 16
-32 21 -23 5 -38 18 -51 42 -16 32 -17 64 -15 335 3 299 3 300 28 344 35 61
68 83 134 89 69 6 101 -12 115 -65 7 -23 11 -165 11 -353 0 -280 -2 -319 -18
-350 -12 -24 -27 -37 -49 -42 -18 -5 -33 -14 -33 -21 0 -9 56 -12 230 -12 173
0 230 3 230 12 0 7 -18 17 -40 23 -68 18 -68 17 -72 385 l-4 330 -25 56 c-32
67 -72 95 -158 111 -125 23 -259 -25 -318 -113 l-28 -43 -3 297 c-3 333 6 302
-82 286z"/>
<path d="M3954 3822 c-70 -33 -93 -121 -49 -188 50 -77 220 -77 271 1 21 32
21 107 0 139 -26 40 -60 57 -123 62 -43 4 -68 0 -99 -14z"/>
<path d="M1550 3717 c0 -9 33 -23 72 -31 15 -4 36 -18 45 -33 16 -24 19 -69
24 -453 4 -302 9 -437 19 -465 40 -129 134 -214 265 -243 241 -53 446 11 524
163 49 97 54 136 60 555 4 271 10 401 18 415 17 31 48 55 79 64 16 4 30 14 32
22 2 12 -25 14 -165 13 -112 -1 -168 -5 -171 -12 -2 -6 9 -14 25 -17 76 -17
98 -30 121 -75 23 -45 23 -45 20 -435 -3 -376 -4 -392 -26 -450 -49 -130 -129
-193 -259 -202 -128 -10 -203 32 -245 135 -23 57 -23 60 -23 515 l0 459 26 22
c15 13 45 26 68 30 22 3 41 12 41 19 0 9 -63 12 -275 12 -151 0 -275 -3 -275
-8z"/>
<path d="M3300 3409 c-59 -12 -127 -55 -167 -107 l-33 -44 0 76 0 76 -26 -6
c-15 -4 -96 -7 -180 -8 -140 -1 -154 -3 -154 -18 0 -10 7 -18 15 -18 30 0 65
-24 80 -56 14 -29 15 -81 13 -383 -3 -388 -1 -376 -69 -390 -19 -4 -35 -13
-37 -21 -2 -13 31 -15 223 -15 208 0 225 1 225 18 0 11 -8 17 -23 17 -13 0
-32 9 -43 21 -18 20 -19 42 -22 320 -2 190 1 313 8 338 21 80 88 133 168 133
39 0 51 -5 73 -30 37 -41 42 -111 37 -454 -4 -299 -7 -312 -63 -326 -16 -5
-31 -15 -33 -23 -2 -12 32 -14 223 -14 208 0 225 1 225 18 0 12 -8 17 -28 17
-18 0 -38 10 -53 26 l-24 26 -5 341 c-4 307 -7 346 -24 379 -48 98 -158 136
-306 107z"/>
<path d="M4635 3410 c-142 -29 -225 -116 -225 -234 0 -101 48 -165 242 -325
102 -84 134 -122 146 -176 12 -56 -1 -105 -37 -137 -25 -23 -41 -28 -82 -28
-118 0 -192 84 -229 263 -7 37 -16 57 -26 57 -11 0 -14 -24 -14 -129 0 -70 -3
-149 -6 -175 -6 -42 -5 -46 15 -46 14 0 21 6 21 18 0 11 8 27 19 36 17 16 23
15 102 -21 74 -33 93 -37 164 -37 139 0 243 47 302 136 25 36 28 51 28 117 0
58 -5 85 -22 116 -27 51 -106 126 -208 200 -148 107 -185 152 -185 227 1 71
44 108 127 108 95 0 172 -78 204 -205 12 -49 25 -68 41 -59 4 3 8 72 8 155 0
126 -2 149 -15 149 -8 0 -15 -6 -15 -14 0 -8 -8 -24 -19 -37 l-19 -23 -53 26
c-90 43 -176 56 -264 38z"/>
<path d="M6582 3409 c-126 -22 -240 -113 -282 -225 -65 -175 -45 -433 44 -558
74 -104 178 -150 341 -150 212 0 336 80 397 254 20 56 23 85 23 210 0 124 -3
155 -23 215 -41 125 -121 206 -237 240 -64 20 -195 27 -263 14z m158 -41 c82
-56 115 -196 107 -463 -7 -247 -38 -349 -119 -391 -76 -39 -148 26 -185 169
-25 101 -25 419 0 522 23 89 57 148 99 168 44 22 59 21 98 -5z"/>
<path d="M7767 3406 c-62 -17 -125 -62 -157 -110 l-25 -39 -3 75 -3 76 -42
-10 c-23 -5 -104 -11 -179 -11 -139 -2 -173 -12 -106 -32 17 -6 41 -23 52 -38
21 -28 21 -40 24 -520 2 -271 0 -507 -3 -525 -6 -34 -38 -62 -74 -65 -12 -1
-21 -8 -21 -17 0 -13 32 -15 250 -15 187 0 251 3 254 12 3 8 -9 15 -32 19
-102 18 -122 52 -122 204 0 60 2 110 4 110 2 0 25 -10 52 -22 35 -15 70 -21
124 -22 247 -2 386 164 397 474 7 184 -22 290 -103 380 -67 74 -184 105 -287
76z m27 -71 c72 -35 106 -153 106 -377 0 -224 -29 -342 -100 -402 -39 -32 -67
-40 -131 -34 -93 9 -89 -5 -89 361 0 305 1 323 21 364 22 45 61 79 107 93 40
12 51 12 86 -5z"/>
<path d="M8827 3410 c-77 -20 -134 -60 -180 -130 -17 -24 -17 -22 -17 51 l0
76 -47 -9 c-27 -5 -108 -10 -180 -11 -90 -1 -133 -6 -133 -13 0 -6 14 -15 31
-20 18 -5 41 -22 53 -37 21 -28 21 -38 24 -527 3 -551 2 -563 -55 -575 -47
-11 -53 -14 -53 -27 0 -10 54 -13 255 -13 190 0 255 3 255 12 0 12 -11 17 -67
28 -18 4 -44 20 -58 37 -24 28 -25 36 -25 149 0 65 2 119 3 119 2 0 18 -7 34
-15 127 -63 305 -30 411 76 155 156 178 546 43 725 -65 87 -188 130 -294 104z
m46 -98 c45 -43 68 -134 74 -303 10 -266 -32 -425 -127 -474 -44 -23 -131 -20
-164 6 l-26 20 0 326 c0 350 2 363 55 413 32 30 94 51 130 44 17 -4 42 -18 58
-32z"/>
<path d="M4065 3398 c-49 -5 -125 -8 -167 -6 -65 3 -78 1 -78 -12 0 -9 14 -20
32 -25 17 -6 41 -23 52 -38 20 -28 21 -40 21 -377 0 -338 -1 -349 -21 -377
-12 -15 -32 -30 -45 -31 -24 -4 -49 -19 -49 -31 0 -3 108 -6 240 -6 206 0 240
2 238 15 -2 8 -18 17 -35 21 -44 9 -61 24 -73 68 -6 21 -10 193 -10 424 0 213
-3 386 -7 386 -5 -1 -48 -6 -98 -11z"/>
</g>
</svg>
